<?xml version="1.0" encoding="UTF-8"?> <svg xmlns="http://www.w3.org/2000/svg" width="256" height="51" viewBox="0 0 256 51" fill="none"><path d="M75.1315 15.0806V10.1364H98.4263V15.0806H89.7427V38.5H83.8151V15.0806H75.1315ZM99.9428 38.5V17.2273H105.663V20.9389H105.884C106.272 19.6186 106.923 18.6214 107.837 17.9474C108.751 17.2642 109.804 16.9226 110.995 16.9226C111.29 16.9226 111.609 16.9411 111.95 16.978C112.292 17.0149 112.592 17.0657 112.85 17.1303V22.3654C112.573 22.2823 112.19 22.2085 111.701 22.1438C111.212 22.0792 110.764 22.0469 110.358 22.0469C109.49 22.0469 108.714 22.2362 108.031 22.6147C107.357 22.984 106.821 23.5011 106.424 24.1658C106.037 24.8306 105.843 25.5969 105.843 26.4648V38.5H99.9428ZM121.357 38.9016C120 38.9016 118.791 38.6662 117.729 38.1953C116.667 37.7152 115.827 37.0089 115.208 36.0763C114.599 35.1346 114.294 33.962 114.294 32.5586C114.294 31.3768 114.511 30.3842 114.945 29.581C115.379 28.7777 115.97 28.1314 116.718 27.642C117.466 27.1527 118.315 26.7834 119.266 26.5341C120.226 26.2848 121.233 26.1094 122.285 26.0078C123.523 25.8786 124.52 25.7585 125.277 25.6477C126.034 25.5277 126.583 25.3523 126.925 25.1214C127.267 24.8906 127.437 24.549 127.437 24.0966V24.0135C127.437 23.1364 127.16 22.4577 126.606 21.9776C126.062 21.4975 125.286 21.2575 124.28 21.2575C123.218 21.2575 122.373 21.4929 121.745 21.9638C121.117 22.4254 120.702 23.0071 120.499 23.7088L115.042 23.2656C115.319 21.973 115.864 20.8558 116.676 19.9141C117.489 18.9631 118.537 18.2337 119.82 17.7259C121.113 17.2088 122.609 16.9503 124.307 16.9503C125.489 16.9503 126.62 17.0888 127.701 17.3658C128.79 17.6428 129.755 18.0721 130.595 18.6538C131.444 19.2354 132.114 19.9833 132.603 20.8974C133.093 21.8022 133.337 22.8871 133.337 24.152V38.5H127.742V35.5501H127.576C127.234 36.2148 126.777 36.8011 126.205 37.3089C125.632 37.8075 124.944 38.1999 124.141 38.4862C123.338 38.7631 122.41 38.9016 121.357 38.9016ZM123.047 34.8299C123.915 34.8299 124.681 34.6591 125.346 34.3175C126.011 33.9666 126.533 33.4957 126.911 32.9048C127.29 32.3139 127.479 31.6445 127.479 30.8967V28.6392C127.294 28.7592 127.04 28.87 126.717 28.9716C126.403 29.0639 126.048 29.1516 125.651 29.2347C125.254 29.3086 124.857 29.3778 124.46 29.4425C124.063 29.4979 123.703 29.5487 123.379 29.5948C122.687 29.6964 122.082 29.858 121.565 30.0795C121.048 30.3011 120.647 30.6012 120.36 30.9798C120.074 31.3491 119.931 31.8107 119.931 32.3647C119.931 33.168 120.222 33.782 120.803 34.2067C121.394 34.6222 122.142 34.8299 123.047 34.8299ZM137.914 38.5V17.2273H143.814V38.5H137.914ZM140.878 14.4851C140.001 14.4851 139.249 14.1942 138.621 13.6126C138.002 13.0217 137.693 12.3153 137.693 11.4936C137.693 10.6811 138.002 9.98402 138.621 9.40234C139.249 8.81143 140.001 8.51598 140.878 8.51598C141.755 8.51598 142.503 8.81143 143.122 9.40234C143.75 9.98402 144.064 10.6811 144.064 11.4936C144.064 12.3153 143.75 13.0217 143.122 13.6126C142.503 14.1942 141.755 14.4851 140.878 14.4851ZM159.855 17.2273V21.6591H147.045V17.2273H159.855ZM149.953 12.1307H155.853V31.9631C155.853 32.5078 155.936 32.9325 156.102 33.2372C156.268 33.5327 156.499 33.7404 156.795 33.8604C157.099 33.9805 157.45 34.0405 157.847 34.0405C158.124 34.0405 158.401 34.0174 158.678 33.9712C158.955 33.9158 159.168 33.8743 159.315 33.8466L160.243 38.2369C159.948 38.3292 159.532 38.4354 158.997 38.5554C158.461 38.6847 157.81 38.7631 157.044 38.7908C155.622 38.8462 154.376 38.657 153.305 38.223C152.243 37.7891 151.417 37.1151 150.826 36.201C150.235 35.2869 149.944 34.1328 149.953 32.7386V12.1307ZM161.396 15.0806V10.1364H184.691V15.0806H176.007V38.5H170.08V15.0806H161.396ZM199.164 29.4425V17.2273H205.063V38.5H199.399V34.636H199.177C198.697 35.8825 197.899 36.8842 196.781 37.6413C195.674 38.3984 194.321 38.777 192.724 38.777C191.302 38.777 190.051 38.4538 188.97 37.8075C187.89 37.1612 187.045 36.2425 186.436 35.0515C185.836 33.8604 185.531 32.4339 185.522 30.772V17.2273H191.422V29.7195C191.431 30.9751 191.768 31.9677 192.433 32.6971C193.098 33.4265 193.989 33.7912 195.106 33.7912C195.817 33.7912 196.481 33.6296 197.1 33.3065C197.719 32.9741 198.217 32.4847 198.596 31.8384C198.984 31.1921 199.173 30.3935 199.164 29.4425ZM215.682 26.2017V38.5H209.783V17.2273H215.405V20.9805H215.655C216.126 19.7433 216.915 18.7646 218.023 18.0444C219.131 17.315 220.474 16.9503 222.053 16.9503C223.53 16.9503 224.818 17.2734 225.917 17.9197C227.016 18.5661 227.87 19.4893 228.479 20.6896C229.089 21.8807 229.393 23.3026 229.393 24.9553V38.5H223.494V26.0078C223.503 24.706 223.17 23.6903 222.496 22.9609C221.822 22.2223 220.894 21.853 219.713 21.853C218.919 21.853 218.217 22.0238 217.608 22.3654C217.007 22.707 216.537 23.2056 216.195 23.8612C215.863 24.5075 215.692 25.2876 215.682 26.2017ZM243.738 38.9155C241.55 38.9155 239.666 38.4723 238.087 37.5859C236.518 36.6903 235.308 35.4254 234.459 33.7912C233.609 32.1477 233.185 30.2042 233.185 27.9606C233.185 25.7724 233.609 23.8519 234.459 22.1992C235.308 20.5465 236.504 19.2585 238.046 18.3352C239.597 17.4119 241.416 16.9503 243.503 16.9503C244.906 16.9503 246.212 17.1765 247.422 17.6289C248.641 18.0721 249.702 18.7415 250.607 19.6371C251.521 20.5327 252.232 21.6591 252.74 23.0163C253.248 24.3643 253.502 25.9432 253.502 27.7528V29.3732H235.539V25.717H247.948C247.948 24.8675 247.764 24.1151 247.394 23.4595C247.025 22.804 246.512 22.2915 245.857 21.9222C245.211 21.5437 244.458 21.3544 243.599 21.3544C242.704 21.3544 241.91 21.5621 241.217 21.9776C240.534 22.3839 239.999 22.9332 239.611 23.6257C239.223 24.3089 239.025 25.0707 239.015 25.9109V29.3871C239.015 30.4396 239.209 31.3491 239.597 32.1154C239.994 32.8817 240.553 33.4727 241.273 33.8881C241.993 34.3036 242.847 34.5114 243.835 34.5114C244.49 34.5114 245.091 34.419 245.635 34.2344C246.18 34.0497 246.646 33.7727 247.034 33.4034C247.422 33.0341 247.717 32.5817 247.92 32.0462L253.377 32.4062C253.1 33.7173 252.532 34.8622 251.674 35.8409C250.824 36.8104 249.726 37.5675 248.378 38.1122C247.039 38.6477 245.492 38.9155 243.738 38.9155Z" fill="#43425D"></path><rect x="9.07983" y="39.8478" width="9.21053" height="10.4348" fill="#FF8E36"></rect><rect x="2.79565" y="40.0161" width="9.67742" height="21.7213" rx="2" transform="rotate(-90 2.79565 40.0161)" fill="#000C4A"></rect><path d="M18.2905 22.0826C18.2905 23.2027 18.2905 23.7628 18.0725 24.1906C17.8808 24.5669 17.5748 24.8729 17.1985 25.0646C16.7707 25.2826 16.2106 25.2826 15.0905 25.2826L12.28 25.2826C11.1599 25.2826 10.5998 25.2826 10.172 25.0646C9.7957 24.8729 9.48973 24.5669 9.29799 24.1906C9.08 23.7628 9.08 23.2027 9.08 22.0826L9.08 0.282594L18.2905 0.282593L18.2905 22.0826Z" fill="#FF7000"></path><rect x="33.2026" y="25.5" width="9.21053" height="24.7826" fill="#FF8E36"></rect><path d="M30.1961 25.9032C29.0571 25.9032 28.4876 25.9032 28.0541 25.678C27.6888 25.4883 27.391 25.1904 27.2012 24.8251C26.9761 24.3917 26.9761 23.8222 26.9761 22.6832L26.9761 19.0426C26.9761 17.9036 26.9761 17.3341 27.2012 16.9006C27.391 16.5353 27.6888 16.2375 28.0541 16.0477C28.4876 15.8226 29.0571 15.8226 30.1961 15.8226L45.4774 15.8226C46.6164 15.8226 47.1859 15.8226 47.6193 16.0477C47.9846 16.2375 48.2825 16.5353 48.4722 16.9006C48.6974 17.3341 48.6974 17.9036 48.6974 19.0426L48.6974 22.6832C48.6974 23.8222 48.6974 24.3917 48.4722 24.8251C48.2825 25.1904 47.9846 25.4883 47.6193 25.678C47.1859 25.9032 46.6164 25.9032 45.4774 25.9032L30.1961 25.9032Z" fill="#000C4A"></path><path d="M42.4133 7.69475C42.4133 8.85262 42.4133 9.43156 42.1809 9.87061C41.9933 10.2249 41.7035 10.5147 41.3492 10.7023C40.9101 10.9348 40.3312 10.9348 39.1733 10.9348L36.4428 10.9348C35.2849 10.9348 34.706 10.9348 34.2669 10.7023C33.9126 10.5147 33.6229 10.2249 33.4353 9.87061C33.2028 9.43156 33.2028 8.85262 33.2028 7.69475L33.2028 0.28258L42.4133 0.282579L42.4133 7.69475Z" fill="#FF7000"></path></svg> 