<?xml version="1.0" encoding="UTF-8"?> <svg xmlns="http://www.w3.org/2000/svg" width="190" height="190" viewBox="0 0 190 190" fill="none"> <rect width="190" height="190" fill="#F8F8F8"></rect> <rect x="54.3333" y="130.583" width="22.4737" height="25.8783" fill="#FF8E36"></rect> <rect x="39" y="131" width="24" height="53" rx="3" transform="rotate(-90 39 131)" fill="#000C4A"></rect> <path d="M76.807 89.6609C76.807 91.341 76.807 92.1811 76.48 92.8228C76.1924 93.3873 75.7335 93.8463 75.169 94.1339C74.5272 94.4609 73.6872 94.4609 72.007 94.4609L59.1333 94.4609C57.4532 94.4609 56.6131 94.4609 55.9714 94.1339C55.4069 93.8463 54.9479 93.3873 54.6603 92.8228C54.3333 92.1811 54.3333 91.341 54.3333 89.6609L54.3333 32.4609L76.807 32.4609L76.807 89.6609Z" fill="#FF7000"></path> <rect x="113.193" y="95" width="22.4737" height="61.4609" fill="#FF8E36"></rect> <path d="M102.83 96C101.122 96 100.267 96 99.6171 95.6622C99.0691 95.3776 98.6224 94.9309 98.3378 94.3829C98 93.7327 98 92.8785 98 91.17L98 75.83C98 74.1215 98 73.2673 98.3378 72.6171C98.6224 72.0691 99.0691 71.6224 99.6171 71.3378C100.267 71 101.122 71 102.83 71L146.17 71C147.878 71 148.733 71 149.383 71.3378C149.931 71.6224 150.378 72.0691 150.662 72.6171C151 73.2673 151 74.1215 151 75.83L151 91.17C151 92.8785 151 93.7327 150.662 94.3829C150.378 94.9309 149.931 95.3776 149.383 95.6622C148.733 96 147.878 96 146.17 96L102.83 96Z" fill="#000C4A"></path> <path d="M135.667 54.0182C135.667 55.755 135.667 56.6234 135.318 57.282C135.037 57.8135 134.602 58.2481 134.07 58.5295C133.412 58.8782 132.543 58.8782 130.807 58.8782L118.053 58.8782C116.316 58.8782 115.448 58.8782 114.789 58.5295C114.258 58.2481 113.823 57.8135 113.542 57.282C113.193 56.6234 113.193 55.755 113.193 54.0182L113.193 32.4608L135.667 32.4608L135.667 54.0182Z" fill="#FF7000"></path> </svg> 